<svg width="130" height="185" viewBox="0 0 130 185" fill="none" xmlns="http://www.w3.org/2000/svg">
<path fill-rule="evenodd" clip-rule="evenodd" d="M37.532 143.866C-9.06785 151.028 -4.25871 184.415 64.0907 184.637C133.973 184.864 138.008 150.794 91.6152 143.866C100.312 131.526 106.38 128.965 117.466 108.673C148.119 52.5616 114.789 0.394994 65.0539 0.00230112C5.39173 -0.468658 -27.8653 71.4398 30.3528 135.18C32.6466 137.692 35.3856 140.795 37.532 143.866Z" fill="#59A6E2"/>
<path fill-rule="evenodd" clip-rule="evenodd" d="M32.3474 93.201L40.5729 83.697C45.0273 79.355 46.46 79.841 51.4314 76.4458C49.0308 70.6841 43.7071 66.7147 47.9398 56.4209C50.2586 50.7817 56.4167 45.6709 64.0947 45.4896C72.2284 45.2976 78.3435 50.3096 80.9064 55.7626C85.7272 66.0198 80.1619 70.5595 77.7157 76.4458C84.2887 80.9364 84.8196 79.0668 92.367 87.6051L95.3572 91.4341C96.3708 92.7404 96.0136 92.3202 96.796 93.201C106.219 86.4508 111.742 63.2726 103.369 45.8394C82.425 2.23438 14.7045 22.0035 21.8008 71.5751C22.4332 75.9931 23.6165 79.3894 25.4657 83.3174C26.9429 86.4557 29.4234 91.1083 32.3474 93.201Z" fill="white"/>
<path fill-rule="evenodd" clip-rule="evenodd" d="M38.2245 99.4618C59.6249 111.582 69.5971 111.333 90.9308 99.4774C88.3095 90.3064 77.5776 81.6846 65.0384 81.5269C52.0162 81.3633 40.8902 90.0296 38.2245 99.4618Z" fill="white"/>
<path fill-rule="evenodd" clip-rule="evenodd" d="M61.7831 52.9713C59.2178 53.8502 57.0435 54.7856 55.2172 58.0008C50.7326 66.7617 57.9292 76.7838 68.0043 73.6406C81.2997 69.4928 74.2026 49.6514 61.7831 52.9713Z" fill="white"/>
<path d="M25.1641 165C38.9659 173.52 53.0598 174.187 63.0389 173.355" stroke="white" stroke-width="11.3386" stroke-miterlimit="22.9256" stroke-linecap="round"/>
</svg>
