<svg width="150" height="186" viewBox="0 0 150 186" fill="none" xmlns="http://www.w3.org/2000/svg">
<path fill-rule="evenodd" clip-rule="evenodd" d="M118.139 51.749C116.849 52.8834 116.456 53.478 115.381 54.5606C114.626 55.3203 114.598 55.3189 113.826 56.0937C112.288 57.6364 113.348 56.416 112.162 57.8095L117.782 61.0362L116.611 69.5793L113.024 70.9892C110.718 72.5177 111.083 72.0644 107.932 71.5764L107.859 57.2489L100.1 55.4134C100.1 66.0941 101.548 77.5933 96.4322 85.8924C84.4205 105.378 43.3619 105.746 49.8121 55.6191L41.8309 57.4929L41.5431 71.5756C38.5188 72.0636 38.8786 72.5243 36.5847 70.9821L32.6763 69.5383L32.3161 61.0236L37.1354 57.7172C33.9021 54.6134 34.5394 56.0767 31.2839 51.9572C27.3175 53.438 23.5983 58.3468 23.8481 65.1544C24.1655 73.806 28.7169 74.6796 32.3035 78.7491C28.4327 86.1833 26.9888 88.0289 28.6531 97.9668C29.9373 105.635 24.6595 100.227 24.4054 118.184C12.8681 123.128 9.54601 131.081 6.58794 145.834C4.92609 154.122 -1.0114 178.034 0.149261 184.468C6.37515 186.482 143.133 186.495 149.453 184.476C150.57 178.151 144.584 155.108 142.871 146.859C139.817 132.153 136.74 122.58 125.076 118.348C125.382 107.688 120.378 102.215 120.799 98.6931C122.136 87.5159 121.858 87.551 117.297 78.7491C120.889 74.6914 124.967 74.1897 125.706 65.9982C126.37 58.6432 122.411 53.6469 118.139 51.749Z" fill="#7CD1CC"/>
<path fill-rule="evenodd" clip-rule="evenodd" d="M31.2838 51.957C34.5393 56.0766 33.902 54.6133 37.1353 57.7171L41.2381 57.3668L41.2918 71.5946L36.5845 70.982C38.8785 72.5241 38.5186 72.0635 41.543 71.5755L41.8308 57.4928L49.8119 55.619C58.6938 50.2566 90.4148 51.8773 100.099 55.4133L107.858 57.2488L107.932 71.5763C111.083 72.0643 110.718 72.5176 113.024 70.9891L108.33 71.7255L108.332 57.4008L112.162 57.8094C113.348 56.4159 112.288 57.6363 113.826 56.0936C114.598 55.3188 114.626 55.3202 115.381 54.5604C116.456 53.4778 116.849 52.8833 118.139 51.7489C117.411 43.228 114.198 40.1521 113.266 33.3552C110.443 12.7722 100.2 0.018918 74.7993 2.09692e-05C58.6938 -0.0120293 48.3511 5.16987 41.7889 14.8232C37.8665 20.5934 36.8056 24.7173 35.9864 32.3444C35.1199 40.4126 31.0587 42.9317 31.2838 51.957Z" fill="#7CD1CC"/>
<path fill-rule="evenodd" clip-rule="evenodd" d="M49.812 55.619C43.3618 105.746 84.4204 105.378 96.4321 85.8923C101.548 77.5932 100.099 66.0939 100.099 55.4133C90.4149 51.8773 58.6939 50.2566 49.812 55.619Z" fill="white"/>
<path fill-rule="evenodd" clip-rule="evenodd" d="M38.5596 177.48L110.742 177.331L111.025 157.744H86.9508C86.9508 163.004 87.3591 164.873 85.815 168.819C79.2137 169.898 79.4572 168.356 78.6588 162.088C75.6684 162.587 72.5608 162.977 69.4935 161.39C64.2385 158.67 68.7302 157.989 61.3727 157.663C54.1773 157.344 45.7457 157.744 38.4999 157.744L38.5596 177.48Z" fill="white"/>
<path fill-rule="evenodd" clip-rule="evenodd" d="M78.5137 138.713C83.5879 141.585 85.3547 142.549 86.9615 149.554L112.623 149.536C113.386 144.925 115.284 140.427 117.34 136.752C119.499 132.892 122.608 129.604 123.821 126.389C116.73 123.511 106.822 122.285 98.9501 120.22C93.0184 124.958 89.1475 128.885 78.5462 130.727L78.5137 138.713Z" fill="white"/>
<path fill-rule="evenodd" clip-rule="evenodd" d="M62.3415 149.539C64.6897 141.25 65.2985 142.393 70.6592 138.48L70.6067 131.125C61.1472 127.794 55.7892 127.026 51.0863 119.979L25.3756 125.821C27.4028 131.392 34.3446 136.696 36.796 149.539H62.3415Z" fill="white"/>
<path fill-rule="evenodd" clip-rule="evenodd" d="M62.3413 149.539L64.1064 157.19L38.4856 157.32L38.5595 177.48L38.4999 157.744C45.7456 157.744 54.1773 157.344 61.3727 157.663C68.7302 157.99 64.2384 158.67 69.4935 161.39C72.5608 162.977 75.6684 162.587 78.6588 162.088C79.4571 168.356 79.2136 169.898 85.815 168.82C87.3591 164.874 86.9508 163.005 86.9508 157.744H111.025L110.742 177.331L111.206 157.523C103.993 156.767 92.9795 158.655 86.9519 156.56L86.9614 149.555C85.3546 142.55 83.5879 141.585 78.5136 138.714L70.6591 138.48C65.2983 142.393 64.6895 141.251 62.3413 149.539Z" fill="#7CD1CC"/>
<path fill-rule="evenodd" clip-rule="evenodd" d="M94.6443 98.7502C95.7806 112.664 103.969 114.342 117.289 115.888C116.63 105.362 110.756 106.315 112.443 99.1183C114.577 90.0121 114.363 86.2193 107.644 81.2036L105.206 85.9824C102.831 91.1982 99.422 96.4051 94.6443 98.7502Z" fill="white"/>
<path fill-rule="evenodd" clip-rule="evenodd" d="M32.3057 115.794C46.9958 114.141 52.2483 112.778 54.6924 98.7464C50.4435 96.3114 46.9552 91.5499 44.6802 86.6559L42.3693 81.8859C42.2792 81.7259 42.1075 81.4239 41.9541 81.2075C36.0076 85.6393 34.7067 89.5028 36.9442 98.3753C39.1036 106.939 33.0183 104.714 32.3057 115.794Z" fill="white"/>
<path fill-rule="evenodd" clip-rule="evenodd" d="M108.332 57.4007C108.331 62.1757 108.331 66.9506 108.33 71.7255C123.082 73.3454 123.309 56.1045 108.332 57.4007Z" fill="white"/>
<path fill-rule="evenodd" clip-rule="evenodd" d="M41.292 71.5945C41.2742 66.8519 41.2561 62.1092 41.2383 57.3666C28.0657 55.423 25.4086 73.5088 41.292 71.5945Z" fill="white"/>
<path fill-rule="evenodd" clip-rule="evenodd" d="M77.4433 153.821C78.6837 151.617 78.8398 149.711 78.0686 147.021C67.5958 144.105 67.9526 156.37 77.4433 153.821Z" fill="white"/>
<path d="M48.8971 27.9451C50.7728 15.8381 59.4824 10.8844 68.0579 10.2402" stroke="white" stroke-width="11.3386" stroke-miterlimit="22.9256" stroke-linecap="round"/>
</svg>
